# xmcd CD database file
#
# Track frame offsets:
#	150
#	12746
#	45969
#	60897
#	75188
#	94273
#	108964
#	124156
#	153805
#	167849
#	181494
#	197844
#	211166
#	224724
#	236320
#	249521
#
# Disc length: 3545 seconds
#
# Revision: 0
# Processed by: cddbd v1.5.2PL0 Copyright (c) Steve Scherf et al.
# Submitted via: CDex 1.51
#
DISCID=cb0dd710
DTITLE=Various Artist - Jazz - The Essential Collection disc 10
DYEAR=1900
DGENRE=Jazz
TTITLE0=Johnny Mercer - Personality
TTITLE1=Woody Herman - Caledonia
TTITLE2=Charlie Barnet and His Orchestra - Pompton Turnpike
TTITLE3=Dinah Shore - Blues In The Night
TTITLE4=Harry James - Cherry
TTITLE5=Freddie Slack and His Orchestra (feat. Ella Mae Morse) - Cow Cow Boogie (Cuma-ti-yi-yi-ay)
TTITLE6=Gene Krupa and His Orchestra (feat. Anita O'Day) - Boogie Blues
TTITLE7=Glen Gray - No Name Jive (Parts 1 and 2)
TTITLE8=Harry James - Music Makers
TTITLE9=Nat 'King' Cole - The Best Man
TTITLE10=Jimmy Dorsey and His Orchestra (feat. Bob Eberly and Helen O'Connell) - Green Eyes
TTITLE11=Benny Goodman and His Orchestra - A String Of Pearls
TTITLE12=Freddie Slack and His Orchestra (feat. Ella Mae Morse) - Mister Five By Five
TTITLE13=Ella Fitzgerald - Imagination
TTITLE14=Duke Ellington and His Famous Orchestra (feat. Ray Nance) - A Slip Of The Lip
TTITLE15=Artie Shaw - Adios, Marquita, Linda
EXTD=
EXTT0=
EXTT1=
EXTT2=
EXTT3=
EXTT4=
EXTT5=
EXTT6=
EXTT7=
EXTT8=
EXTT9=
EXTT10=
EXTT11=
EXTT12=
EXTT13=
EXTT14=
EXTT15=
PLAYORDER=
